<svg width="32" height="32" viewBox="0 0 32 32" fill="none" xmlns="http://www.w3.org/2000/svg">
<g clip-path="url(#clip0_303_21517)">
<path d="M12.2586 18.6667C12.1493 18.6667 12.0453 18.6987 11.9693 18.7574C11.8933 18.8147 11.8493 18.8921 11.8493 18.9734C11.852 19.0267 11.8413 19.0787 11.816 19.1267C11.792 19.1761 11.7533 19.2201 11.7053 19.2587C11.6573 19.2961 11.5986 19.3254 11.536 19.3467C11.472 19.3667 11.4026 19.3774 11.3333 19.3774C11.264 19.3774 11.1946 19.3667 11.1306 19.3467C11.0666 19.3254 11.0106 19.2961 10.9613 19.2587C10.9133 19.2201 10.8746 19.1761 10.8506 19.1267C10.8253 19.0787 10.8146 19.0267 10.8173 18.9734C10.8173 18.8934 10.7733 18.8134 10.6973 18.7574C10.62 18.6987 10.5173 18.6667 10.408 18.6667C10.3013 18.6667 10.196 18.6987 10.12 18.7574C10.044 18.8147 9.99998 18.8921 9.99998 18.9734C9.99598 19.1067 10.0266 19.2401 10.0933 19.3654C10.1586 19.4894 10.256 19.6027 10.38 19.6987C10.504 19.7934 10.652 19.8694 10.816 19.9214C10.98 19.9734 11.156 20.0001 11.3333 20.0001C11.5106 20.0001 11.6866 19.9734 11.8506 19.9214C12.0146 19.8694 12.1626 19.7934 12.2866 19.6974C12.4106 19.6027 12.508 19.4894 12.5733 19.3641C12.64 19.2401 12.6706 19.1081 12.6666 18.9734C12.6666 18.8934 12.6226 18.8134 12.5466 18.7574C12.4706 18.6987 12.3666 18.6667 12.2586 18.6667ZM19.8786 26.1401C19.8226 26.0521 19.744 26.0001 19.66 25.9947C19.5773 25.9894 19.496 26.0334 19.4333 26.1147C19.3733 26.1947 19.3373 26.3094 19.3333 26.4294C19.3306 26.5494 19.36 26.6667 19.416 26.7547L20.12 27.8547C20.1773 27.9427 20.2546 27.9947 20.3386 28.0001C20.4213 28.0041 20.5026 27.9614 20.564 27.8801L21.8973 26.1214C21.928 26.0814 21.952 26.0334 21.9706 25.9787C21.988 25.9254 21.9973 25.8667 22 25.8067C22.0013 25.7481 21.996 25.6881 21.9813 25.6321C21.968 25.5761 21.9453 25.5254 21.9173 25.4801C21.8906 25.4361 21.856 25.4001 21.8186 25.3761C21.78 25.3494 21.74 25.3361 21.6986 25.3334C21.6573 25.3307 21.616 25.3414 21.5773 25.3601C21.5373 25.3814 21.5026 25.4134 21.472 25.4534L20.3706 26.9081L19.8786 26.1401Z" fill="#8DC63F"/>
<path d="M16.3906 12.948C16.3853 12.596 16.452 12.2453 16.584 11.9187C16.7173 11.592 16.9146 11.2947 17.164 11.0453C17.4146 10.796 17.7106 10.6 18.0386 10.468C18.3666 10.3347 18.7186 10.2707 19.0706 10.276H19.084C19.7906 10.2747 20.468 10.5493 20.972 11.044C21.4666 11.5547 21.7453 12.2373 21.7466 12.948C21.7466 13.052 21.788 13.1507 21.8613 13.224C21.9346 13.2973 22.0346 13.3387 22.1373 13.3387C22.2413 13.3387 22.3413 13.2987 22.4146 13.224C22.488 13.1507 22.5293 13.0507 22.5293 12.948C22.524 12.596 22.5893 12.2453 22.7213 11.9187C22.8546 11.592 23.052 11.2947 23.3013 11.0453C23.552 10.796 23.8493 10.6 24.1773 10.468C24.504 10.3347 24.856 10.2693 25.2093 10.276C25.9186 10.2707 26.6026 10.5467 27.1093 11.0427C27.4973 11.46 27.8093 12.4093 27.8973 12.7413C27.9226 12.8333 27.9786 12.912 28.0573 12.9653C28.1373 13.0187 28.2306 13.0413 28.3253 13.028C28.4186 13.016 28.5066 12.9707 28.5693 12.9C28.632 12.828 28.6666 12.7373 28.6666 12.6427V12.6267C28.6626 5.66267 22.9853 0 16.008 0H15.984C14.3213 0 12.676 0.329333 11.14 0.965333C9.60531 1.6 8.20931 2.532 7.03465 3.70667C5.86131 4.88 4.92798 6.27333 4.29331 7.80667C3.65865 9.34 3.33331 10.984 3.33331 12.6427C3.33331 12.736 3.36798 12.8293 3.43065 12.9C3.49331 12.9707 3.57998 13.0173 3.67465 13.0293C3.76798 13.0413 3.86398 13.0187 3.94131 12.9653C4.02131 12.912 4.07865 12.8333 4.10131 12.7413C4.19065 12.4107 4.50131 11.464 4.88798 11.0453C5.40398 10.552 6.09198 10.2747 6.80798 10.276C7.51465 10.2733 8.19198 10.5493 8.69598 11.0427C9.19198 11.5547 9.46931 12.2373 9.47065 12.9493C9.47065 13.052 9.51198 13.1507 9.58531 13.224C9.65865 13.2973 9.75865 13.3387 9.86265 13.3387C9.96531 13.3387 10.0653 13.2973 10.1386 13.224C10.212 13.1507 10.2533 13.0507 10.2533 12.948C10.248 12.596 10.3133 12.2453 10.4466 11.9187C10.58 11.592 10.776 11.2947 11.0266 11.0453C11.276 10.796 11.5733 10.6 11.9013 10.4667C12.2293 10.3347 12.58 10.2693 12.9333 10.276H12.9466C13.652 10.2733 14.3306 10.5493 14.8333 11.0427C15.3293 11.5547 15.6066 12.2373 15.6093 12.9493V15.1587C15.6093 15.1747 15.6093 15.1907 15.612 15.2067C15.2213 15.2107 14.8306 15.2413 14.4426 15.2973C14.1186 14.8333 13.688 14.4547 13.1853 14.1933C12.684 13.932 12.1266 13.796 11.56 13.7947C11.4986 13.7947 11.44 13.8093 11.384 13.8373C11.3306 13.864 11.2826 13.904 11.2453 13.9533C11.2093 14.0027 11.1853 14.06 11.1746 14.12C11.164 14.18 11.168 14.2413 11.1866 14.3L11.2626 14.5493C11.4066 15.016 11.4666 15.5067 11.4373 15.9947C10.0573 16.5653 8.88665 17.5453 8.08531 18.8027L7.81331 19.2333H7.01865C6.77731 19.2333 6.54531 19.3293 6.37465 19.5C6.20265 19.6707 6.10798 19.9027 6.10798 20.144V23.4453C6.10798 23.6867 6.20265 23.9187 6.37465 24.0893C6.54531 24.26 6.77731 24.356 7.01865 24.356H7.82265C8.06265 24.8067 8.35598 25.224 8.69998 25.6013C9.38398 26.3613 9.75998 27.3453 9.75465 28.3653C9.75465 28.672 9.87865 28.9653 10.096 29.1827C10.3133 29.4 10.608 29.5213 10.9146 29.5227H11.984C12.2906 29.5227 12.5853 29.4 12.8026 29.1827C13.02 28.9653 13.1426 28.672 13.1426 28.3653C13.1426 28.2653 13.1826 28.1693 13.2533 28.0987C13.324 28.028 13.42 27.988 13.52 27.988H15.5146C15.6146 27.988 15.712 28.028 15.7813 28.0987C15.8533 28.1693 15.892 28.2653 15.8933 28.3653C15.8933 28.672 16.0146 28.9653 16.2333 29.1827C16.4506 29.4 16.7453 29.5213 17.052 29.5227H17.7453C18.116 30.0547 18.576 30.52 19.1053 30.8987C19.7533 31.3707 20.472 31.736 21.2346 31.984C21.3053 32.0053 21.38 32.0053 21.4506 31.9853C22.2346 31.74 22.976 31.3733 23.6493 30.9013C25.116 29.8653 25.8933 28.488 25.8933 26.9147V24.5467C25.8933 24.4693 25.8706 24.396 25.8293 24.332C25.7866 24.268 25.7266 24.2187 25.656 24.188L25.6293 24.176C24.7066 23.78 23.816 23.312 22.9653 22.7787C23.012 22.4773 23.0346 22.172 23.0346 21.8667V21.7573C23.4733 21.68 23.8706 21.4507 24.156 21.1093C24.4426 20.768 24.6 20.336 24.6013 19.892C24.6013 19.788 24.56 19.6893 24.4866 19.616C24.4133 19.5427 24.3133 19.5013 24.2093 19.5013C24.1066 19.5013 24.0066 19.5427 23.9333 19.616C23.86 19.6893 23.8186 19.7893 23.8186 19.892C23.8186 20.1413 23.7346 20.3827 23.58 20.5787C23.4266 20.7747 23.212 20.9133 22.9693 20.9733C22.5173 17.92 19.7826 15.5173 16.3826 15.232C16.388 15.208 16.3906 15.1827 16.3906 15.1573V12.948ZM15.3986 10.5027L15.388 10.492C14.7373 9.852 13.8613 9.49333 12.948 9.49467H12.9306C12.016 9.49467 11.1373 9.85067 10.4813 10.4867L10.464 10.5027C10.2253 10.7533 10.024 11.036 9.86265 11.3427C9.70265 11.036 9.49865 10.7533 9.25998 10.5027L9.24931 10.492C8.59998 9.852 7.72398 9.492 6.80931 9.49467C5.88931 9.492 5.00531 9.848 4.34265 10.4867L4.32665 10.5027L4.29998 10.5293C4.79598 7.796 6.23731 5.324 8.37198 3.54267C10.5066 1.76 13.2013 0.782667 15.9866 0.78H16.0093C21.836 0.78 26.7 4.99333 27.6986 10.528L27.676 10.5027L27.664 10.492C27.3413 10.172 26.9573 9.92133 26.536 9.74933C26.1146 9.57867 25.6626 9.492 25.208 9.496C24.2933 9.496 23.4146 9.852 22.7573 10.4867L22.7413 10.5027C22.5026 10.7547 22.3013 11.036 22.14 11.3427C21.9786 11.036 21.776 10.7547 21.5373 10.5027L21.5266 10.492C20.8773 9.852 20 9.49333 19.0866 9.49467H19.0706C18.156 9.496 17.2773 9.85067 16.62 10.4867L16.604 10.5027C16.364 10.7533 16.1626 11.036 16.0013 11.3427C15.8413 11.036 15.6386 10.7533 15.4 10.5027H15.3986ZM25.1106 26.9133C25.1106 28.2347 24.4733 29.3573 23.2146 30.252C22.64 30.6547 22.0106 30.9733 21.3466 31.2C20.704 30.9733 20.0986 30.6547 19.548 30.256C18.3346 29.3613 17.7186 28.2373 17.7186 26.9147V24.8027C19.0226 24.2253 20.2613 23.512 21.4146 22.6747C22.568 23.512 23.8066 24.2253 25.1106 24.8027V26.9133ZM22.2533 21.8667C22.2533 22.0107 22.2466 22.1547 22.2346 22.2987C22.0373 22.1613 21.8426 22.0213 21.6493 21.8773C21.5826 21.8267 21.5 21.7987 21.4146 21.7987C21.3306 21.7987 21.248 21.8253 21.18 21.8773C19.9493 22.7973 18.6133 23.5707 17.1986 24.1773L17.172 24.1893C17.1026 24.22 17.0426 24.2693 17 24.3333C16.9586 24.3973 16.936 24.472 16.936 24.5467V26.9133C16.9333 27.5427 17.0613 28.1653 17.3106 28.7413H17.052C16.952 28.7413 16.856 28.7013 16.7853 28.6307C16.7146 28.56 16.6746 28.4653 16.6746 28.364C16.6746 28.0573 16.552 27.764 16.3346 27.5467C16.1173 27.3307 15.8226 27.208 15.5146 27.208H13.52C13.2133 27.208 12.9186 27.3307 12.7013 27.5467C12.484 27.764 12.3613 28.0587 12.3613 28.3653C12.3613 28.4653 12.3213 28.56 12.2506 28.632C12.18 28.7013 12.084 28.7413 11.984 28.7413H10.9146C10.8146 28.7413 10.7186 28.7013 10.648 28.6307C10.5773 28.56 10.5373 28.4653 10.5373 28.364C10.5413 27.1507 10.0933 25.98 9.28131 25.0773C8.93198 24.696 8.64131 24.2653 8.41865 23.8C8.38665 23.7333 8.33598 23.676 8.27331 23.636C8.21065 23.596 8.13865 23.576 8.06398 23.576H7.01865C6.98531 23.576 6.95198 23.5627 6.92665 23.5373C6.90265 23.5133 6.88931 23.48 6.88931 23.4453V20.144C6.88931 20.1093 6.90265 20.076 6.92665 20.0507C6.95198 20.0267 6.98531 20.0133 7.01998 20.0133H8.02931C8.09465 20.0133 8.15998 19.9973 8.21731 19.9653C8.27465 19.9333 8.32398 19.888 8.35865 19.832L8.74665 19.22C9.49998 18.0387 10.6173 17.132 11.932 16.6387C12.0013 16.6147 12.064 16.572 12.1106 16.5147C12.1573 16.4573 12.1853 16.3867 12.1946 16.3147C12.26 15.7493 12.2253 15.1787 12.0946 14.6267C12.7146 14.7507 13.2733 15.0853 13.6746 15.5733C14.0746 16.0627 14.296 16.6733 14.296 17.3067C14.296 17.4093 14.3373 17.508 14.4106 17.5813C14.484 17.6547 14.584 17.696 14.6866 17.696C14.7906 17.696 14.8906 17.6547 14.964 17.5813C15.0373 17.508 15.0786 17.408 15.0786 17.3053C15.0786 16.8693 14.9973 16.4387 14.8386 16.032C15.1266 16.0013 15.416 15.9853 15.7053 15.9853C19.316 15.9853 22.2533 18.624 22.2533 21.8667Z" fill="#034EA2"/>
</g>
<defs>
<clipPath id="clip0_303_21517">
<rect width="32" height="32" fill="white"/>
</clipPath>
</defs>
</svg>
