<svg width="29" height="22" viewBox="0 0 29 22" fill="none" xmlns="http://www.w3.org/2000/svg">
<path d="M3.6949 12.5635C3.74838 12.6218 3.81238 12.6688 3.88384 12.7016C3.95529 12.7349 4.03244 12.7529 4.1109 12.756C4.26082 12.7551 4.40504 12.6972 4.51463 12.5938L4.67507 12.4434L6.30838 14.2034C6.02827 14.5353 5.88142 14.9614 5.89633 15.3975C5.91211 15.8337 6.08877 16.2479 6.39167 16.5583C6.68625 16.8572 7.07989 17.0348 7.49633 17.0571C7.52482 17.4793 7.70455 17.8764 8.00132 18.1745C8.29677 18.4721 8.68953 18.6497 9.10597 18.6729C9.1314 19.0937 9.30674 19.4904 9.59912 19.7907C9.89458 20.0879 10.2873 20.2655 10.7038 20.2891C10.7261 20.6223 10.8427 20.9423 11.04 21.211C11.2373 21.4793 11.5064 21.6844 11.8159 21.8028C12.1249 21.9203 12.4616 21.9457 12.7847 21.8755C13.1077 21.8054 13.4041 21.6423 13.6381 21.4065L13.8464 21.1961L14.0423 21.4004C14.2041 21.5643 14.3961 21.6945 14.6078 21.7835C14.8191 21.872 15.0461 21.9176 15.2745 21.9176C15.5038 21.9176 15.7304 21.872 15.9421 21.7835C16.1534 21.6945 16.3454 21.5643 16.5076 21.4004C16.8075 21.0997 16.9876 20.6977 17.0117 20.2712C17.4378 20.2479 17.8402 20.066 18.1405 19.7605C18.4412 19.458 18.6192 19.053 18.6398 18.6251C19.0641 18.6019 19.4656 18.4222 19.7681 18.1206C20.0636 17.812 20.2407 17.4074 20.2674 16.9791C20.7101 16.9541 21.1266 16.7586 21.4304 16.432C21.7346 16.1055 21.9029 15.6737 21.9007 15.2248C21.8955 14.8811 21.7902 14.5467 21.5978 14.2635L23.3381 12.5574L23.5283 12.7797C23.584 12.8441 23.6524 12.8954 23.7291 12.9304C23.8058 12.9655 23.8891 12.9839 23.9737 12.9839C24.1184 12.9839 24.2573 12.9304 24.3656 12.834L28.2919 9.34382C28.4103 9.23862 28.4818 9.09001 28.4918 8.93133C28.5019 8.77264 28.4493 8.61615 28.3454 8.49648L21.17 0.206285C21.1182 0.146669 21.0556 0.0975732 20.985 0.0620664C20.9149 0.0269979 20.8377 0.00639517 20.7592 0.0011349C20.6812 -0.00368702 20.6023 0.00683351 20.5282 0.0331349C20.4537 0.0589979 20.3853 0.0993264 20.3266 0.152367L16.4064 3.63642C16.3472 3.68903 16.299 3.75215 16.2643 3.8236C16.2293 3.89461 16.2091 3.97176 16.2043 4.05155C16.1955 4.20935 16.249 4.36497 16.3529 4.48376L16.6615 4.84409H16.4357C15.2789 4.9905 14.1778 5.43061 13.2344 6.12409L12.3673 5.25264L12.5037 5.1264C12.562 5.07292 12.6089 5.00848 12.6422 4.93659C12.6755 4.8647 12.6944 4.78667 12.6974 4.70733C12.7009 4.62842 12.6887 4.54908 12.6615 4.47456C12.6343 4.40004 12.5927 4.33166 12.5392 4.27335L8.97534 0.404861C8.8789 0.290888 8.74301 0.218121 8.59529 0.200587C8.51726 0.196642 8.43967 0.208916 8.36603 0.235655C8.29282 0.261957 8.22575 0.303601 8.16745 0.356642L0.172712 7.84157C0.0618082 7.95423 0 8.10678 0 8.26546C0 8.42415 0.0618082 8.57626 0.172712 8.68892L3.6949 12.564V12.5635ZM7.25874 14.9666L8.07847 14.1377C8.15299 14.0614 8.24811 14.0092 8.352 13.9878C8.45545 13.9663 8.56329 13.9768 8.66104 14.0171C8.75923 14.0579 8.84296 14.1267 8.90214 14.2157C8.96132 14.3043 8.99288 14.4086 8.99332 14.516C8.99375 14.587 8.98016 14.6576 8.95386 14.7238C8.92756 14.7895 8.88811 14.85 8.83901 14.9004L8.00175 15.7114C7.90093 15.8122 7.76548 15.8692 7.62433 15.8692C7.48274 15.8692 7.34729 15.8122 7.24734 15.7114C7.14784 15.6084 7.0926 15.4698 7.09392 15.3256C7.09479 15.1818 7.15222 15.0442 7.25304 14.9425L7.25874 14.9666ZM8.69655 16.9668C8.69742 16.8222 8.75485 16.6841 8.85655 16.5824L9.67627 15.7535C9.72581 15.7017 9.78455 15.661 9.84986 15.6329C9.91562 15.6049 9.98575 15.5904 10.0563 15.5904C10.1273 15.5904 10.1979 15.6049 10.2628 15.6329C10.3285 15.661 10.3873 15.7017 10.4368 15.7535C10.4859 15.803 10.5249 15.8622 10.5517 15.9271C10.578 15.9919 10.5916 16.0616 10.5911 16.1318C10.5916 16.2032 10.578 16.2738 10.5517 16.3395C10.5254 16.4057 10.4859 16.4658 10.4368 16.5166L9.60526 17.3276C9.52942 17.4012 9.43386 17.4503 9.33041 17.4705C9.2274 17.4898 9.12044 17.4788 9.02356 17.4376C8.92625 17.3969 8.84296 17.3285 8.78378 17.2404C8.72504 17.1527 8.69216 17.0492 8.69041 16.9432L8.69655 16.9668ZM10.2939 18.5831C10.2952 18.4384 10.3531 18.3003 10.4544 18.1986L11.2741 17.3692C11.3236 17.318 11.3824 17.2772 11.4477 17.2487C11.5134 17.2206 11.5836 17.2062 11.6546 17.2062C11.7252 17.2062 11.7957 17.2206 11.8606 17.2487C11.9264 17.2768 11.9851 17.318 12.0346 17.3697C12.0837 17.4188 12.1227 17.478 12.1495 17.5428C12.1758 17.6081 12.1894 17.6778 12.1889 17.748C12.1894 17.819 12.1758 17.8896 12.1495 17.9558C12.1232 18.0215 12.0837 18.0816 12.0346 18.1324L11.2088 18.9675C11.1088 19.0683 10.9729 19.1253 10.8318 19.1253C10.6902 19.1253 10.5547 19.0683 10.4548 18.9675C10.4 18.9149 10.3575 18.8513 10.3285 18.7808C10.3001 18.7106 10.2865 18.6348 10.2882 18.5589L10.2939 18.5831ZM12.0763 20.5833C12.025 20.5337 11.9842 20.4737 11.957 20.4079C11.929 20.3417 11.915 20.2707 11.915 20.1988C11.915 20.1274 11.929 20.0564 11.957 19.9902C11.9847 19.9244 12.025 19.8644 12.0763 19.8148L12.896 18.9855C12.9451 18.9337 13.0043 18.893 13.0696 18.8649C13.1349 18.8369 13.205 18.8224 13.2756 18.8224C13.3471 18.8224 13.4172 18.8369 13.4825 18.8649C13.5478 18.893 13.6066 18.9337 13.6561 18.9855C13.7543 19.0876 13.8095 19.2244 13.8095 19.3668C13.8095 19.5093 13.7543 19.6465 13.6561 19.7482L13.4602 19.9468L12.8307 20.5833C12.779 20.6363 12.7167 20.6784 12.6483 20.706C12.5799 20.7336 12.5067 20.7468 12.4335 20.7446C12.3595 20.7424 12.2871 20.7249 12.2209 20.6929C12.1543 20.6609 12.0947 20.6157 12.0465 20.5592L12.0763 20.5833ZM20.665 1.4499L27.0628 8.80902L24.0395 11.5062L17.6364 4.14711L20.665 1.4499ZM16.5786 6.0636L17.3685 5.96716C17.426 5.96059 17.4825 5.94437 17.5351 5.91938H17.5825L22.5477 11.6386L20.7658 13.3684L15.9426 8.23829C15.8483 8.13834 15.7234 8.07478 15.5879 8.05724C15.4529 8.03971 15.3162 8.06952 15.2 8.14229L13.9406 8.95324C13.5513 9.19741 13.1104 9.34426 12.654 9.38196C12.1973 9.41922 11.7387 9.34689 11.3153 9.16935L13.8043 7.21692C14.6095 6.58787 15.5682 6.18941 16.5786 6.0636ZM12.2784 6.87456L10.4487 8.31018C10.2996 8.42459 10.1821 8.57582 10.1085 8.74985C10.0344 8.92344 10.0064 9.11368 10.027 9.30174C10.0436 9.48848 10.1067 9.6682 10.2111 9.82338C10.3145 9.979 10.4557 10.1052 10.6209 10.1907C11.2399 10.4875 11.9224 10.6225 12.6062 10.5835C13.2901 10.5449 13.9529 10.3336 14.535 9.96848L15.4323 9.40387L20.3323 14.6181L20.5287 14.8163C20.5804 14.868 20.6216 14.9298 20.6492 14.9977C20.6768 15.0661 20.6904 15.1393 20.6887 15.2125C20.69 15.2866 20.6764 15.3594 20.6488 15.4273C20.6212 15.4957 20.5804 15.5575 20.5287 15.6092C20.4239 15.7136 20.2832 15.7719 20.1363 15.7719C19.9899 15.7719 19.8488 15.7136 19.7444 15.6097C19.6335 15.4961 19.4823 15.4321 19.3249 15.4317C19.1671 15.4313 19.0159 15.494 18.9041 15.6062C18.7919 15.7188 18.7288 15.8714 18.7288 16.0305C18.7279 16.1901 18.7901 16.3431 18.901 16.4561C19.0071 16.5583 19.0694 16.699 19.0733 16.8472C19.0773 16.9949 19.0225 17.1387 18.9216 17.2461C18.8208 17.3539 18.6819 17.4166 18.5359 17.4205C18.389 17.4245 18.247 17.3692 18.1409 17.2671C18.0287 17.154 17.877 17.0909 17.7188 17.0909C17.561 17.0909 17.4089 17.154 17.2971 17.2675C17.1853 17.3806 17.1226 17.5341 17.1226 17.6941C17.1226 17.8536 17.1853 18.0071 17.2971 18.1201C17.3488 18.1723 17.39 18.2341 17.4181 18.3021C17.4461 18.37 17.4606 18.4432 17.4606 18.5169C17.4606 18.5905 17.4461 18.6637 17.4181 18.7317C17.39 18.7996 17.3488 18.8614 17.2971 18.9131C17.1884 19.0113 17.0477 19.0652 16.9026 19.0652C16.7566 19.0652 16.6159 19.0113 16.5072 18.9131C16.3932 18.8149 16.2472 18.7637 16.0978 18.7694C15.9487 18.7751 15.8067 18.8377 15.701 18.9447C15.595 19.0517 15.5332 19.1954 15.5275 19.3462C15.5218 19.4975 15.5726 19.6456 15.6699 19.7605C15.7611 19.8683 15.8089 20.0068 15.8036 20.1484C15.7984 20.29 15.7409 20.4246 15.6419 20.5254C15.5432 20.6262 15.4104 20.6854 15.2701 20.692C15.1299 20.6981 14.9927 20.6508 14.8857 20.5592L14.6599 20.3312C14.8883 19.9963 14.9931 19.5908 14.9563 19.1858C14.9195 18.7803 14.7432 18.4011 14.4579 18.1145C14.1607 17.8155 13.7657 17.6362 13.3471 17.6099C13.3216 17.1886 13.1445 16.7915 12.8487 16.4934C12.5532 16.1958 12.16 16.0178 11.7436 15.9937C11.7243 15.5742 11.5502 15.177 11.2557 14.8811C10.9607 14.5852 10.5666 14.4121 10.1515 14.3959C10.1295 13.968 9.95156 13.5639 9.6526 13.2605C9.32252 12.948 8.88723 12.774 8.43485 12.774C7.9829 12.774 7.54762 12.948 7.21753 13.2605L7.13425 13.3447L5.56581 11.6263L11.5055 6.0579L12.2779 6.875L12.2784 6.87456ZM8.5177 1.64804L11.2618 4.65209L4.31825 11.1577L4.16964 11.3024L1.4194 8.29834L8.5177 1.64804Z" fill="#8DC63F"/>
</svg>
