<svg width="27" height="24" viewBox="0 0 27 24" fill="none" xmlns="http://www.w3.org/2000/svg">
<path d="M14.2963 17.9254C14.089 17.9241 13.8829 17.8972 13.6819 17.8486L7.46113 16.3215C7.20513 16.2614 6.98625 16.1014 6.84929 15.8787C6.71234 15.6547 6.67009 15.3859 6.73153 15.1311C6.7917 14.8777 6.95169 14.6575 7.17569 14.5206C7.39842 14.3836 7.66722 14.3414 7.92194 14.4028L14.1427 15.958C14.3053 15.9977 14.4768 15.9759 14.624 15.8966C14.7712 15.8159 14.8839 15.6841 14.9389 15.5254C14.9927 15.3641 14.9824 15.19 14.912 15.0364C14.8403 14.8828 14.7123 14.7625 14.5549 14.6998L6.78018 11.6175L1.40417 14.2966C1.18017 14.39 0.930575 14.3951 0.702735 14.3107C0.474895 14.2262 0.288015 14.0598 0.177935 13.8435C0.0691349 13.6271 0.046095 13.3775 0.113935 13.1446C0.180495 12.9116 0.331535 12.7132 0.540175 12.5878L6.30018 9.70777C6.42434 9.65273 6.55874 9.62329 6.69442 9.62329C6.8301 9.62329 6.96322 9.65273 7.08738 9.70777L15.2666 12.9807C15.8259 13.2035 16.2906 13.613 16.5786 14.1404C16.8666 14.6678 16.9626 15.2796 16.8487 15.8697C16.736 16.4598 16.4186 16.9923 15.9552 17.375C15.4906 17.7577 14.9082 17.9651 14.3066 17.9638L14.2963 17.9254Z" fill="#034EA2"/>
<path d="M13.4514 23.0417H13.3068L0.82679 21.1217C0.70135 21.1025 0.57975 21.059 0.47095 20.9937C0.36087 20.9284 0.26615 20.8414 0.18935 20.739C0.11511 20.6366 0.0600702 20.5201 0.0293502 20.396C-0.00136977 20.2731 -0.00904984 20.1438 0.0114302 20.0184C0.0293502 19.8916 0.0728702 19.7713 0.13943 19.6612C0.20471 19.5524 0.29175 19.4564 0.39415 19.3809C0.49655 19.3054 0.61175 19.2504 0.73591 19.2196C0.86007 19.1889 0.98935 19.1825 1.11479 19.2017L13.2492 21.1217L24.4338 14.2392C23.9948 13.9102 23.4725 13.7105 22.926 13.6632C22.3794 13.6158 21.8316 13.722 21.3426 13.9704L18.6828 15.2952C18.4588 15.3886 18.2092 15.3924 17.9813 15.308C17.7535 15.2248 17.5666 15.0584 17.4566 14.842C17.3477 14.6244 17.3247 14.3761 17.3925 14.1432C17.4578 13.9102 17.6101 13.7105 17.8188 13.5864L20.4876 12.2513C21.5513 11.7201 23.9218 11.9019 23.9218 11.9019C23.9218 11.9019 26.0684 12.922 26.7276 13.9115C26.7993 14.0177 26.8479 14.1368 26.8735 14.2622C26.8991 14.3876 26.8978 14.5169 26.8722 14.6424C26.8441 14.7691 26.7903 14.8894 26.7135 14.9944C26.638 15.1006 26.542 15.1889 26.4306 15.2568L13.9506 22.9368C13.797 23.0161 13.6242 23.052 13.4514 23.0417ZM17.4348 11.5217C16.43 11.5192 15.4521 11.1915 14.6495 10.5873C13.8457 9.98443 13.2594 9.13707 12.9778 8.17195C12.6962 7.20811 12.7333 6.17771 13.0854 5.23691C13.4374 4.29483 14.0837 3.49227 14.9285 2.94955C15.1449 2.81131 15.406 2.76523 15.6543 2.82027C15.9039 2.87531 16.1215 3.02635 16.2585 3.24267C16.3967 3.45771 16.4428 3.71755 16.3878 3.96715C16.3327 4.21675 16.1817 4.43435 15.9654 4.57131C15.4662 4.88747 15.0822 5.35851 14.8735 5.91147C14.6649 6.46571 14.6406 7.07243 14.807 7.63947C14.9734 8.20779 15.3189 8.70699 15.7926 9.06027C16.2661 9.41483 16.8421 9.60427 17.4348 9.60171C18.0825 9.59915 18.7084 9.36619 19.2012 8.94635C19.6927 8.52523 20.0204 7.94283 20.1228 7.30411C20.2277 6.66411 20.101 6.00875 19.7669 5.45451C19.4329 4.90027 18.9119 4.48171 18.2988 4.27435C18.167 4.22955 18.0453 4.15659 17.9442 4.06059C17.8431 3.96459 17.765 3.84683 17.7138 3.71755C17.655 3.59083 17.6242 3.45387 17.6242 3.31435C17.6242 3.17483 17.655 3.03659 17.7138 2.91115L18.2514 2.06635C17.9698 2.16875 17.6703 2.21483 17.3721 2.19819C17.0738 2.18155 16.7807 2.10347 16.5145 1.97035C16.421 1.92299 16.3161 1.90635 16.2137 1.92427C16.1113 1.94091 16.0178 1.99083 15.9474 2.06507C15.7682 2.24427 15.5238 2.34539 15.269 2.34539C15.0169 2.34539 14.7737 2.24427 14.5932 2.06635C14.5036 1.97675 14.4319 1.87051 14.3833 1.75403C14.3346 1.63627 14.309 1.51083 14.309 1.38411C14.309 1.25739 14.3346 1.13195 14.3833 1.01547C14.4319 0.897712 14.5036 0.791472 14.5932 0.703152C14.9452 0.365232 15.3919 0.142512 15.8732 0.0618717C16.3532 -0.0187683 16.8473 0.0477917 17.2914 0.251312C17.3247 0.270512 17.3631 0.279472 17.4015 0.279472C17.4399 0.279472 17.4783 0.270512 17.5116 0.251312C17.9647 0.0273117 18.4767 -0.0494882 18.9759 0.0311518C19.4751 0.113072 19.9359 0.347312 20.2956 0.703152C20.4415 0.849072 20.5349 1.03851 20.5644 1.24203C20.5938 1.44683 20.5567 1.65419 20.4594 1.83595L19.8834 2.93035C20.759 3.45899 21.4361 4.26283 21.8098 5.21643C22.1823 6.16875 22.2322 7.21835 21.9493 8.20267C21.6652 9.18571 21.0661 10.0484 20.2431 10.6577C19.4201 11.267 18.4204 11.587 17.3964 11.5704L17.4348 11.5217Z" fill="#034EA2"/>
<path d="M17.4349 11.5217C16.4301 11.5192 15.4522 11.1915 14.6496 10.5873C13.8458 9.98443 13.2596 9.13707 12.978 8.17195C12.6964 7.20811 12.7335 6.17771 13.0855 5.23691C13.4375 4.29483 14.0839 3.49227 14.9287 2.94955C15.1437 2.81131 15.4048 2.76523 15.6544 2.82027C15.904 2.87531 16.1216 3.02635 16.2586 3.24267C16.3968 3.45771 16.4429 3.71755 16.3879 3.96715C16.3328 4.21675 16.1805 4.43435 15.9655 4.57131C15.4663 4.88747 15.0823 5.35851 14.8736 5.91147C14.6637 6.46571 14.6407 7.07243 14.8071 7.63947C14.9735 8.20779 15.3191 8.70699 15.7927 9.06027C16.2663 9.41483 16.8423 9.60427 17.4349 9.60171C18.0826 9.59915 18.7085 9.36619 19.2013 8.94635C19.6928 8.52523 20.0205 7.94283 20.1229 7.30411C20.2279 6.66411 20.1011 6.00875 19.7671 5.45451C19.433 4.90027 18.912 4.48171 18.2989 4.27435C18.1671 4.22955 18.0455 4.15659 17.9443 4.06059C17.8432 3.96459 17.7652 3.84683 17.714 3.71755C17.6551 3.59083 17.6243 3.45387 17.6243 3.31435C17.6243 3.17483 17.6551 3.03659 17.714 2.91115L18.2516 2.06635C17.97 2.16875 17.6704 2.21483 17.3722 2.19819C17.0727 2.18155 16.7808 2.10347 16.5133 1.97035C16.4211 1.92299 16.3162 1.90635 16.2138 1.92427C16.1114 1.94091 16.018 1.99083 15.9476 2.06507C15.7671 2.24427 15.5239 2.34539 15.2692 2.34539C15.017 2.34539 14.7738 2.24427 14.5933 2.06635C14.5037 1.97675 14.432 1.87051 14.3834 1.75403C14.3348 1.63627 14.3092 1.51083 14.3092 1.38411C14.3092 1.25739 14.3348 1.13195 14.3834 1.01547C14.432 0.897712 14.5037 0.791472 14.5933 0.703152C14.9453 0.365232 15.3907 0.142512 15.8733 0.0618717C16.3533 -0.0187683 16.8474 0.0477917 17.2903 0.251312C17.3248 0.270512 17.3632 0.279472 17.4016 0.279472C17.44 0.279472 17.4784 0.270512 17.5117 0.251312C17.9648 0.0273117 18.4768 -0.0494882 18.976 0.0311518C19.4752 0.113072 19.936 0.347312 20.2957 0.703152C20.4403 0.849072 20.5351 1.03851 20.5645 1.24203C20.594 1.44683 20.5568 1.65419 20.4595 1.83595L19.8836 2.93035C20.7591 3.45899 21.4362 4.26283 21.8099 5.21643C22.1824 6.16875 22.2323 7.21835 21.9482 8.20267C21.6666 9.18571 21.0663 10.0484 20.2432 10.6577C19.4202 11.267 18.4192 11.587 17.3965 11.5704L17.4349 11.5217Z" fill="#8DC63F"/>
</svg>
