<svg width="31" height="16" viewBox="0 0 31 16" fill="none" xmlns="http://www.w3.org/2000/svg">
<path d="M18.0754 3.82356C18.0754 3.90804 18.0716 3.98996 18.0664 4.07444L18.0536 4.19732C18.0396 4.33812 18.0728 4.08212 18.0511 4.22036C18.0242 4.39444 17.9794 4.5634 17.9256 4.7298C17.9128 4.7682 17.9 4.8066 17.886 4.84244C17.877 4.86548 17.8258 4.99092 17.8796 4.86548C17.8488 4.93844 17.813 5.00884 17.7772 5.07924C17.7004 5.23156 17.6082 5.37492 17.5084 5.51316C17.4303 5.62068 17.5788 5.42612 17.4956 5.53108L17.4188 5.62068C17.3688 5.67956 17.3151 5.73588 17.26 5.7922C17.205 5.84852 17.1474 5.901 17.0885 5.9522L16.9989 6.02772L17.0117 6.01748L16.9477 6.06356C16.821 6.15572 16.6866 6.23764 16.5471 6.3106C16.4767 6.34644 16.405 6.37972 16.332 6.41172C16.4575 6.35668 16.332 6.40916 16.3103 6.41812C16.2604 6.43732 16.2104 6.45396 16.1592 6.46932C16.0056 6.52052 15.8482 6.55636 15.6882 6.58324C15.5512 6.60628 15.8047 6.57044 15.6652 6.58708L15.5423 6.5986C15.445 6.60628 15.3464 6.60756 15.2492 6.60756C15.166 6.60756 15.0828 6.60116 14.9996 6.59476C14.9586 6.5922 14.9176 6.58708 14.8767 6.58196C15.0162 6.5986 14.878 6.58068 14.8536 6.57684C14.6821 6.5474 14.5119 6.50004 14.3468 6.445L14.2354 6.40404C14.1074 6.3554 14.3378 6.45012 14.2136 6.39636C14.1407 6.36436 14.0703 6.32852 14.0012 6.2914C13.8501 6.21204 13.7068 6.1186 13.5711 6.01748C13.6786 6.09812 13.5711 6.01748 13.5544 6.0034L13.4648 5.9266C13.406 5.8754 13.3496 5.82036 13.2946 5.76404C13.2396 5.709 13.1884 5.65012 13.1372 5.59124L13.0629 5.50036C13.15 5.60916 13.0437 5.47092 13.0284 5.44916C12.9388 5.32116 12.8581 5.1842 12.7864 5.04468L12.7352 4.93716C12.725 4.9154 12.6738 4.79124 12.7263 4.91668C12.6904 4.83092 12.661 4.7426 12.6328 4.65428C12.5842 4.4994 12.5509 4.34068 12.5253 4.18068C12.5471 4.3202 12.5253 4.18068 12.524 4.15636C12.5189 4.1154 12.5164 4.07444 12.5138 4.03348C12.5074 3.93492 12.5061 3.83764 12.5087 3.73908C12.5087 3.65588 12.5164 3.57268 12.524 3.49076C12.5266 3.46516 12.5458 3.32692 12.5253 3.46644L12.5458 3.34612C12.5765 3.1746 12.6252 3.00692 12.6828 2.8418C12.6956 2.8034 12.7109 2.76756 12.7263 2.73044C12.6751 2.85716 12.7263 2.73172 12.7352 2.70996C12.7685 2.63828 12.8044 2.56788 12.8415 2.49876C12.8799 2.42964 12.9208 2.3618 12.9631 2.29524L13.0284 2.19796C13.0437 2.1762 13.1487 2.03668 13.0629 2.14676C13.1589 2.02388 13.2664 1.90868 13.3791 1.80116C13.4341 1.74612 13.4943 1.69492 13.5532 1.645C13.5724 1.62964 13.6773 1.549 13.5711 1.62964C13.612 1.59764 13.6556 1.5682 13.6991 1.53876C13.8271 1.44916 13.9653 1.37236 14.1061 1.30196L14.2136 1.25076C14.3365 1.19572 14.1087 1.293 14.2354 1.24308C14.3212 1.2098 14.4108 1.18036 14.4991 1.15348C14.5759 1.13044 14.6552 1.11124 14.7346 1.0946C14.773 1.08564 14.814 1.07796 14.8536 1.07156C14.8792 1.06644 15.0162 1.04596 14.8767 1.06516C15.0559 1.04212 15.2364 1.03572 15.4168 1.04212C15.5 1.04468 15.5832 1.05236 15.6652 1.06004C15.806 1.0754 15.55 1.04212 15.6882 1.06388L15.8085 1.08564C15.98 1.11892 16.1464 1.16884 16.3103 1.229C16.3333 1.23796 16.4588 1.28916 16.332 1.2354L16.4408 1.28404C16.5125 1.3186 16.5816 1.35572 16.6508 1.39412C16.7199 1.43252 16.7864 1.47348 16.8517 1.517L16.949 1.58356C16.9682 1.59636 17.0744 1.67828 16.9682 1.59636C17.0911 1.69108 17.2063 1.7986 17.3138 1.91124C17.3688 1.96756 17.42 2.02644 17.47 2.0866C17.4853 2.10452 17.566 2.20948 17.4853 2.10324L17.5544 2.19796C17.644 2.32596 17.7247 2.46292 17.7951 2.60372L17.8463 2.70996C17.8578 2.73172 17.9077 2.85588 17.8565 2.73044C17.8872 2.80468 17.9128 2.8802 17.9372 2.95572C17.9884 3.10932 18.0242 3.26676 18.0511 3.42676C18.0741 3.56372 18.0383 3.31028 18.0549 3.4498L18.0664 3.57268C18.0728 3.65588 18.0754 3.73908 18.0754 3.82356C18.0767 4.11028 18.3135 4.34836 18.6002 4.34836C18.8856 4.34836 19.1276 4.11028 19.125 3.82356C19.116 2.35156 18.2495 0.956361 16.8978 0.344521C15.486 -0.292919 13.8437 -0.0305192 12.693 1.005C11.5871 2.00084 11.1813 3.64436 11.6575 5.04724C11.8879 5.72564 12.3103 6.34644 12.8735 6.79444C13.4815 7.28084 14.1842 7.5586 14.9586 7.6418C16.0248 7.75444 17.1 7.35252 17.8898 6.6434C18.6796 5.93172 19.1186 4.87956 19.125 3.82356C19.1276 3.53812 18.8856 3.29876 18.6002 3.29876C18.3135 3.29876 18.0767 3.53812 18.0754 3.82356Z" fill="#8DC63F"/>
<path d="M19.4872 7.30772C19.5692 7.3602 19.6485 7.41396 19.7266 7.47028C19.742 7.4818 19.87 7.57908 19.7624 7.49588C19.8008 7.52532 19.838 7.55604 19.8738 7.58676C20.0338 7.72116 20.1823 7.86836 20.3218 8.02196C20.3871 8.09236 20.4498 8.1666 20.5087 8.24212C20.4242 8.13588 20.5215 8.2626 20.5343 8.27796C20.5624 8.31636 20.5893 8.35732 20.6162 8.397C20.7352 8.5698 20.8389 8.75284 20.9311 8.941L20.9938 9.07284C21.0604 9.22132 20.949 8.96276 21.0104 9.1138C21.0476 9.20468 21.0796 9.29812 21.1103 9.39028C21.1768 9.59508 21.2255 9.805 21.2639 10.0175C21.2664 10.0367 21.2895 10.2031 21.2716 10.0623C21.2792 10.1135 21.2844 10.1634 21.2882 10.2133C21.2984 10.3157 21.3023 10.4181 21.3061 10.5205V13.6412C21.3061 13.6796 21.3061 13.6975 21.3036 13.7346C21.2959 13.8895 21.3292 13.6117 21.301 13.7615C21.2933 13.8063 21.2805 13.8498 21.269 13.8933C21.2613 13.9189 21.2076 14.0584 21.2664 13.9202C21.2319 14.0008 21.1858 14.0764 21.1384 14.1506C21.0565 14.2722 21.2178 14.0584 21.1218 14.1698C21.0834 14.2133 21.0412 14.253 20.9989 14.2927C20.8901 14.3912 21.0988 14.2236 20.9797 14.308C20.9439 14.3336 20.9055 14.3554 20.8684 14.3772C20.83 14.4002 20.7903 14.4181 20.7493 14.436C20.8837 14.3746 20.7493 14.4309 20.7224 14.4386C20.6789 14.4527 20.6354 14.4616 20.5919 14.4719C20.4421 14.5026 20.7199 14.4616 20.565 14.4744C20.533 14.477 20.501 14.477 20.4677 14.477H10.1125C10.0716 14.477 10.0613 14.477 10.0191 14.4744C9.86548 14.4668 10.1432 14.4988 9.99348 14.4719C9.94868 14.4629 9.90516 14.4514 9.86164 14.4386L9.77716 14.4117C9.84756 14.4424 9.85396 14.445 9.79508 14.4181C9.71444 14.381 9.64148 14.3336 9.5698 14.2837C9.68756 14.3669 9.57492 14.2824 9.55316 14.2632C9.52116 14.2338 9.49172 14.2018 9.46356 14.1698C9.36372 14.061 9.5314 14.2696 9.44692 14.1493C9.42132 14.1135 9.39956 14.0764 9.3778 14.038C9.35476 13.9996 9.33684 13.9612 9.31892 13.9202C9.38292 14.0597 9.31252 13.8818 9.30356 13.8498C9.29076 13.8063 9.28308 13.7615 9.2754 13.7167C9.30228 13.8677 9.28052 13.7192 9.27796 13.6885V13.6296V13.4991V10.7816C9.27796 10.6255 9.27796 10.4706 9.2882 10.3144C9.29076 10.2632 9.29588 10.212 9.301 10.1621C9.30356 10.1429 9.32532 9.97396 9.30484 10.116C9.31892 10.0162 9.33812 9.91764 9.3586 9.81908C9.4034 9.60916 9.46612 9.40436 9.53908 9.2034L9.59284 9.06644C9.54164 9.19444 9.60564 9.0434 9.61204 9.02676C9.653 8.93716 9.6978 8.8514 9.74388 8.76564C9.84244 8.58132 9.95764 8.40468 10.0818 8.23572C10.1765 8.10644 10.0076 8.3266 10.1074 8.20116L10.2008 8.0898C10.2648 8.01684 10.3288 7.94644 10.3967 7.87732C10.4632 7.8082 10.5336 7.74292 10.6053 7.67764L10.7141 7.58292C10.7333 7.56756 10.8946 7.44084 10.7858 7.52404C10.8754 7.4562 10.9676 7.3922 11.0623 7.33076C11.3272 7.15796 11.436 6.81876 11.2709 6.53588C11.1173 6.2722 10.741 6.15444 10.476 6.32724C9.02196 7.27444 8.11572 8.88852 8.11572 10.6306V13.2008C8.11572 13.6872 8.12724 14.1352 8.35252 14.5858C8.67892 15.2412 9.41236 15.6392 10.1292 15.6392H20.4664C21.3112 15.6392 22.046 15.1068 22.3468 14.3272C22.4978 13.9356 22.4696 13.5119 22.4696 13.101V11.5368V10.6242C22.4696 9.72436 22.2264 8.83348 21.7759 8.05524C21.3637 7.34356 20.7672 6.7458 20.0748 6.30548C19.8072 6.13396 19.4348 6.24788 19.2812 6.51284C19.1148 6.79444 19.221 7.13876 19.4872 7.30772ZM27.509 6.44244C27.5077 6.53332 27.5026 6.62548 27.4936 6.71636C27.509 6.56276 27.4911 6.71252 27.486 6.74068C27.4783 6.7842 27.468 6.82772 27.4578 6.87124C27.436 6.957 27.4092 7.04148 27.3784 7.12468C27.3272 7.26548 27.4296 7.01076 27.3695 7.14644C27.3452 7.2002 27.3183 7.2514 27.2914 7.3026C27.2492 7.3794 27.2018 7.45108 27.1532 7.52276C27.0687 7.64308 27.2312 7.42804 27.1404 7.54196L27.0546 7.63924C26.997 7.70324 26.9343 7.7634 26.8703 7.821L26.7704 7.9042C26.892 7.80692 26.7384 7.92212 26.7128 7.93876C26.6412 7.9874 26.5644 8.02836 26.4876 8.06932C26.4492 8.08852 26.4095 8.10772 26.3698 8.12436C26.5068 8.06292 26.3711 8.1218 26.3442 8.13076C26.2623 8.16148 26.1765 8.18452 26.0908 8.205C26.0472 8.21524 26.0024 8.2242 25.9589 8.23188C25.8924 8.24212 25.9 8.24212 25.9794 8.2306L25.8885 8.23956C25.7964 8.24724 25.7042 8.24724 25.612 8.24468C25.566 8.2434 25.5199 8.23956 25.4751 8.23572C25.3215 8.22292 25.6018 8.2562 25.4495 8.23188C25.3612 8.2178 25.2741 8.19604 25.1884 8.17172C25.1461 8.15892 25.1052 8.14612 25.0629 8.13076C25.036 8.12052 25.0079 8.11156 24.981 8.10004C25.0514 8.13076 25.0578 8.13332 24.9989 8.10644C24.9196 8.07188 24.844 8.02964 24.7685 7.98484C24.7314 7.96308 24.6956 7.93876 24.6597 7.91444C24.638 7.90164 24.5189 7.81204 24.638 7.9042C24.4895 7.789 24.3589 7.65332 24.2412 7.5074C24.3359 7.62388 24.2463 7.50868 24.2309 7.48692C24.2053 7.45108 24.1836 7.41396 24.1605 7.37684C24.1157 7.30388 24.076 7.2258 24.0389 7.14644C23.9749 7.01204 24.0837 7.26292 24.03 7.12468L23.9864 6.99924C23.9557 6.90068 23.9327 6.79828 23.9135 6.69588C23.8866 6.54484 23.9263 6.82516 23.9109 6.67156C23.9058 6.62548 23.9032 6.58068 23.902 6.5346C23.8968 6.44244 23.9007 6.349 23.9071 6.25812C23.9084 6.22996 23.9288 6.07636 23.9071 6.23252C23.9135 6.18772 23.9224 6.14292 23.9314 6.0994C23.9519 5.997 23.9826 5.89844 24.0146 5.80116C24.0236 5.77556 24.0812 5.63732 24.021 5.77556C24.0376 5.73716 24.0568 5.69748 24.0773 5.6578C24.1157 5.581 24.1605 5.50548 24.2066 5.43252C24.2296 5.39668 24.2552 5.36084 24.2808 5.32628C24.1951 5.4466 24.2796 5.33012 24.2962 5.30836C24.3602 5.23156 24.4332 5.15988 24.5061 5.09076L24.6047 5.00628C24.6533 4.96788 24.6482 4.97044 24.5893 5.01908L24.6597 4.96788C24.7429 4.91156 24.8312 4.86164 24.9208 4.81428C24.9592 4.79508 24.9989 4.77588 25.0386 4.75924C24.8965 4.82324 25.0757 4.74772 25.1052 4.73876C25.2165 4.70036 25.333 4.67348 25.4508 4.65172C25.6005 4.62356 25.3202 4.66452 25.4738 4.64788C25.5352 4.64148 25.5967 4.6402 25.6581 4.63764C25.7656 4.63508 25.8732 4.64148 25.9781 4.653C25.8245 4.63636 25.9743 4.65428 26.0037 4.6594C26.0613 4.67092 26.1189 4.685 26.1765 4.70036C26.2341 4.71444 26.2892 4.73364 26.3455 4.75156L26.4274 4.78356C26.357 4.75284 26.3506 4.75028 26.4095 4.77716C26.5016 4.81812 26.59 4.86804 26.677 4.9218C26.7141 4.94356 26.7487 4.96916 26.7845 4.99348C26.8357 5.03188 26.8319 5.02676 26.7717 4.98068L26.837 5.03444C26.9138 5.09844 26.9855 5.17012 27.0546 5.24436C27.093 5.28532 27.1314 5.33012 27.166 5.37492C27.0687 5.2546 27.1852 5.4082 27.2018 5.43252C27.2581 5.517 27.3055 5.6066 27.3503 5.69748C27.3631 5.7218 27.4194 5.85748 27.3631 5.71796C27.3848 5.773 27.4028 5.82804 27.4207 5.88436C27.4527 5.98292 27.4757 6.08532 27.4949 6.18772C27.5052 6.253 27.5039 6.2466 27.4924 6.16724L27.5013 6.25684C27.5064 6.31828 27.5077 6.381 27.509 6.44244C27.5116 6.7586 27.7701 7.02356 28.0901 7.02356C28.4037 7.02356 28.6738 6.7586 28.6712 6.44244C28.6623 5.59508 28.3026 4.76948 27.66 4.21268C26.9637 3.61108 26.0856 3.39348 25.1845 3.52404C24.3576 3.64308 23.6229 4.18964 23.18 4.88212C22.7192 5.60148 22.6194 6.54228 22.8805 7.34996C23.0981 8.02324 23.5525 8.58644 24.1452 8.96532C24.766 9.3634 25.5058 9.46324 26.2239 9.35956C27.6332 9.15732 28.6572 7.82996 28.6712 6.44244C28.6738 6.12628 28.4037 5.86004 28.0901 5.86004C27.7701 5.86004 27.5116 6.12628 27.509 6.44244Z" fill="#034EA2"/>
<path d="M28.3347 9.28665C28.3756 9.31225 28.4153 9.33785 28.4537 9.36473C28.4703 9.37753 28.597 9.47353 28.4895 9.38905C28.5638 9.44793 28.6355 9.51322 28.7033 9.5785C28.7724 9.64506 28.8364 9.71545 28.8991 9.78841C28.9119 9.80377 29.0079 9.92922 28.926 9.82042C28.9644 9.87162 29.0003 9.92537 29.0348 9.97914C29.0873 10.0598 29.1347 10.143 29.1782 10.2287C29.2012 10.271 29.2217 10.3158 29.2422 10.3593C29.1833 10.2339 29.2486 10.3798 29.2563 10.399C29.2908 10.4911 29.3203 10.5846 29.3459 10.6793C29.3587 10.7267 29.3676 10.7753 29.3779 10.8239C29.3843 10.8495 29.4163 11.0595 29.3983 10.9148C29.4521 11.3372 29.4188 11.7801 29.4188 12.2025V13.2355C29.4188 13.2662 29.4188 13.2969 29.415 13.3276C29.4265 13.247 29.4252 13.2393 29.4124 13.3046C29.406 13.334 29.3535 13.4684 29.4124 13.3302C29.3958 13.3711 29.3727 13.407 29.3497 13.4454C29.2742 13.567 29.4303 13.3558 29.3343 13.462C29.3151 13.4838 29.2051 13.5721 29.3215 13.4838C29.2883 13.5094 29.2499 13.5299 29.2127 13.5516C29.086 13.6207 29.3279 13.5132 29.1897 13.558C29.1603 13.5683 29.0169 13.5913 29.1692 13.5721C29.1423 13.5759 29.1052 13.5772 29.0771 13.5772H23.9084C23.591 13.5772 23.3273 13.8409 23.3273 14.1583C23.3273 14.4745 23.591 14.7395 23.9084 14.7395H28.7826C29.1923 14.7395 29.598 14.7215 29.9436 14.4617C30.3353 14.166 30.5811 13.7321 30.5811 13.2329V12.8028V11.3679C30.5811 10.6358 30.398 9.92154 29.9859 9.31225C29.7043 8.89626 29.3433 8.55321 28.9209 8.28185C28.6547 8.11033 28.2809 8.22553 28.1273 8.49049C27.9609 8.77209 28.0684 9.11641 28.3347 9.28665ZM6.68217 6.43993C6.68217 6.53209 6.67577 6.62425 6.66681 6.71513C6.68217 6.56153 6.66425 6.71129 6.65913 6.73945C6.65145 6.78297 6.64121 6.82649 6.63097 6.87001C6.61049 6.95577 6.58233 7.04025 6.55161 7.12345C6.50041 7.26425 6.60281 7.00954 6.54265 7.14522C6.51961 7.19898 6.49145 7.25017 6.46457 7.30137C6.42233 7.37817 6.37497 7.44985 6.32633 7.52153C6.24185 7.64185 6.40441 7.42682 6.31353 7.54074L6.22777 7.63801C6.17017 7.70201 6.10745 7.76217 6.04345 7.81977L5.94361 7.90298C6.06521 7.8057 5.91161 7.92089 5.88601 7.93753C5.81433 7.98617 5.73753 8.02713 5.66073 8.06809C5.62233 8.08729 5.58265 8.10649 5.54297 8.12314C5.67993 8.0617 5.54425 8.12057 5.51865 8.12954C5.43545 8.16025 5.34969 8.18329 5.26265 8.20377C5.22041 8.21401 5.17561 8.22297 5.13209 8.23065C5.06553 8.24089 5.07321 8.2409 5.15257 8.22938L5.06297 8.23834C4.96953 8.24602 4.87737 8.24601 4.78521 8.24345C4.73913 8.24217 4.69305 8.23833 4.64825 8.23449C4.49465 8.22169 4.77497 8.25497 4.62265 8.23065C4.53433 8.21657 4.44857 8.19481 4.36281 8.17049C4.31929 8.15769 4.27833 8.1449 4.23609 8.12954C4.20921 8.1193 4.18105 8.11033 4.15417 8.09881C4.22585 8.12953 4.23097 8.13209 4.17209 8.10522C4.09273 8.07065 4.01721 8.02841 3.94169 7.98361C3.90457 7.96185 3.86873 7.93753 3.83289 7.91321C3.81113 7.90041 3.69209 7.81081 3.81113 7.90298C3.66265 7.78778 3.53209 7.65209 3.41433 7.50617C3.50905 7.62265 3.41945 7.50745 3.40409 7.48569C3.37849 7.44985 3.35673 7.41273 3.33369 7.37561C3.28889 7.30265 3.24921 7.22458 3.21209 7.14522C3.14809 7.01082 3.25689 7.26169 3.20313 7.12345C3.18777 7.08249 3.17369 7.04025 3.16089 6.99801C3.12889 6.89945 3.10585 6.79705 3.08793 6.69465C3.05977 6.54361 3.10073 6.82393 3.08409 6.67033C3.07897 6.62425 3.07769 6.57945 3.07513 6.53337C3.07001 6.44121 3.07513 6.34777 3.08025 6.25689C3.08153 6.22873 3.10201 6.07513 3.08025 6.23129C3.08665 6.18649 3.09561 6.1417 3.10457 6.09818C3.12505 5.99578 3.15577 5.89721 3.18777 5.79993C3.19673 5.77433 3.25433 5.6361 3.19417 5.77434L3.25049 5.65658C3.28889 5.57978 3.33369 5.50425 3.37977 5.43129L3.45401 5.32506C3.36825 5.44538 3.45273 5.3289 3.47065 5.30714C3.53465 5.23034 3.60633 5.15866 3.67929 5.08954L3.77785 5.00506C3.82777 4.96666 3.82265 4.96921 3.76249 5.01785L3.83289 4.96665C3.91609 4.91033 4.00441 4.86041 4.09401 4.81305C4.13241 4.79385 4.17209 4.77465 4.21177 4.75801C4.06969 4.82201 4.25017 4.74649 4.27833 4.73753C4.38969 4.69913 4.50617 4.67225 4.62393 4.65049C4.77369 4.62233 4.49465 4.66329 4.64825 4.64665C4.70841 4.64025 4.76985 4.63898 4.83129 4.63642C4.93881 4.63386 5.04633 4.64026 5.15257 4.65178C4.99897 4.63514 5.14745 4.65306 5.17689 4.65818C5.23449 4.6697 5.29209 4.68377 5.34969 4.69913C5.40729 4.71321 5.46361 4.73241 5.51865 4.75033L5.60057 4.78233C5.53017 4.75161 5.52377 4.74905 5.58265 4.77593C5.67481 4.81689 5.76313 4.86682 5.85017 4.92058C5.88729 4.94234 5.92313 4.96794 5.95769 4.99226C6.00889 5.03066 6.00505 5.02553 5.94489 4.97945L6.01145 5.03321C6.08825 5.09721 6.15993 5.1689 6.22905 5.24314C6.26745 5.2841 6.30329 5.32889 6.33913 5.37369C6.24313 5.25337 6.35833 5.40697 6.37497 5.43129C6.43129 5.51577 6.47993 5.60538 6.52473 5.69626C6.53753 5.72058 6.59257 5.85626 6.53625 5.71674C6.55801 5.77178 6.57721 5.82682 6.59513 5.88314C6.62713 5.9817 6.64889 6.08409 6.66809 6.18649C6.67833 6.25177 6.67705 6.24537 6.66681 6.16601L6.67449 6.25561C6.67961 6.31705 6.68089 6.37977 6.68217 6.44121C6.68473 6.75737 6.94457 7.02233 7.26329 7.02233C7.57689 7.02233 7.84697 6.75737 7.84441 6.44121C7.83545 5.59385 7.47577 4.76825 6.83321 4.21145C6.13817 3.60985 5.25881 3.39226 4.35897 3.52282C3.53081 3.64186 2.79737 4.18842 2.35321 4.8809C1.89241 5.60026 1.79257 6.54105 2.05369 7.34873C2.27129 8.02201 2.72569 8.58521 3.31833 8.96409C3.94041 9.36217 4.67897 9.46202 5.39705 9.35834C6.80633 9.1561 7.83033 7.82745 7.84441 6.43993C7.84697 6.12377 7.57817 5.85882 7.26329 5.85882C6.94329 5.85882 6.68473 6.12377 6.68217 6.43993ZM6.67449 13.5759H1.52761C1.47897 13.5759 1.33561 13.5542 1.47897 13.5785C1.43545 13.5708 1.39321 13.5567 1.35097 13.5439C1.48665 13.5875 1.36377 13.5465 1.33305 13.5286C1.30617 13.5132 1.19993 13.4262 1.31129 13.5196C1.28569 13.4979 1.16537 13.3571 1.25753 13.4787C1.23193 13.4441 1.21017 13.407 1.18969 13.3686C1.11929 13.2419 1.22809 13.4838 1.18201 13.3468C1.17305 13.3174 1.15001 13.1727 1.16921 13.3263C1.16537 13.3007 1.16409 13.2598 1.16409 13.2342V13.1036V12.4329V11.2681C1.16409 11.1657 1.17049 11.0633 1.17945 10.9609C1.19609 10.7945 1.15897 11.0812 1.18713 10.9161C1.19481 10.8662 1.20505 10.8175 1.21657 10.7689C1.23705 10.6729 1.26649 10.5769 1.29721 10.4835C1.31257 10.4374 1.32921 10.3913 1.34841 10.3452C1.29721 10.4745 1.37657 10.2851 1.38681 10.262C1.42905 10.175 1.47769 10.0905 1.52889 10.0086C1.55449 9.96633 1.58137 9.92665 1.60825 9.88697C1.61977 9.87161 1.71705 9.74362 1.63385 9.84986C1.76185 9.68602 1.91161 9.54009 2.07161 9.40697C2.19449 9.30457 1.97689 9.47481 2.10617 9.38009C2.14457 9.35193 2.18553 9.32505 2.22649 9.29945C2.49017 9.12537 2.60025 8.78746 2.43385 8.50329C2.28025 8.24089 1.90393 8.12185 1.64025 8.29593C0.872251 8.79897 0.307771 9.56314 0.0952913 10.4591C-0.0211887 10.9571 0.00185131 11.4678 0.00185131 11.9734V13.2278C0.00185131 14.0611 0.693051 14.7382 1.52249 14.7382H6.67449C6.99193 14.7382 7.25561 14.4732 7.25561 14.1571C7.25561 13.8396 6.99065 13.5759 6.67449 13.5759Z" fill="#034EA2"/>
</svg>
